<?xml version="1.0" encoding="utf-8"?>
<!-- Generator: Adobe Illustrator 16.0.0, SVG Export Plug-In . SVG Version: 6.00 Build 0)  -->
<!DOCTYPE svg PUBLIC "-//W3C//DTD SVG 1.1//EN" "http://www.w3.org/Graphics/SVG/1.1/DTD/svg11.dtd">
<svg version="1.1" id="Layer_1" xmlns="http://www.w3.org/2000/svg" xmlns:xlink="http://www.w3.org/1999/xlink" x="0px" y="0px"
	 width="385.992px" height="96.074px" viewBox="0 0 385.992 96.074" enable-background="new 0 0 385.992 96.074"
	 xml:space="preserve">
<g>
	<path fill="#E2001D" d="M61.233,63.286c1.056,2.783,2.495,7.101,5.565,8.443v0.96H41.084v-0.96c4.797-0.96,5.181-3.839,3.55-8.443
		l-4.126-11.61H19.88l-3.646,11.61c-1.151,3.741-0.959,7.388,6.237,8.443v0.96H3.185v-0.96c4.414-2.304,5.757-5.854,7.292-10.651
		L26.308,11.57l-2.782-7.964h16.311L61.233,63.286z M29.571,20.781l-7.772,24.85h16.6L29.571,20.781z"/>
	<path fill="#E2001D" d="M98.364,73.649c-5.374,0-8.731-1.729-11.035-3.84v-1.438c1.536,0.479,3.071,0.862,4.99,0.862
		c7.868,0,10.938-6.236,10.938-19.764c0-13.242-3.167-16.696-9.211-16.696c-3.358,0-5.757,1.055-8.636,2.878v50.277
		c0,2.304,0,4.223,6.141,6.908v0.96h-24.85v-0.96c5.085-2.686,5.085-4.604,5.085-6.908V34.598c0-2.879,0-6.429-5.085-8.924v-0.958
		h18.709v7.484h0.193l8.06-6.909c1.343-0.672,3.55-1.535,7.1-1.535c11.418,0,17.078,9.881,17.078,24.945
		C117.841,65.971,109.974,73.649,98.364,73.649z"/>
	<path fill="#E2001D" d="M166.675,47.933l-28.782-0.095c0.574,9.499,5.372,16.792,15.159,16.792c5.182,0,9.306-2.112,12.378-4.223
		v0.959c-2.208,7.676-8.636,12.283-18.615,12.283c-14.872,0-23.411-9.691-23.411-24.756c0-12.761,7.483-25.138,25.426-25.138
		c8.155,0,18.325,3.645,18.325,18.038C167.158,43.616,166.964,45.726,166.675,47.933z M154.875,42.369
		c0.192-1.248,0.289-2.303,0.289-3.454c0-6.525-3.071-9.979-7.484-9.979c-5.468,0-9.307,4.126-9.786,15.161L154.875,42.369z"/>
	<path fill="#E2001D" d="M195.557,26.057c2.206-1.535,4.605-2.302,7.579-2.302c1.824,0,4.606,0.383,5.949,0.863l-4.413,12.57
		c-0.863-0.192-2.976-0.577-4.991-0.577c-4.604,0-7.674,1.727-9.69,3.359v24.658c0,2.496,0,4.413,6.909,7.1v0.96h-25.618v-0.96
		c4.989-2.687,4.989-4.604,4.989-7.1V34.598c0-2.879,0-6.429-4.989-8.924v-0.959h18.709v11.609h0.193L195.557,26.057z"/>
	<path fill="#E2001D" d="M228.658,62.516c0,6.237,2.495,6.909,11.13,6.718v0.961c-4.51,2.206-8.635,3.454-13.336,3.454
		c-7.006,0-11.419-2.976-11.419-11.132V29.225h-4.605v-0.96l6.718-4.413l10.553-8.732h0.96v9.596h11.033v4.51h-11.033V62.516
		L228.658,62.516z"/>
	<path fill="#E2001D" d="M277.013,62.998l-8.06,8.444c-1.822,1.054-4.701,2.207-8.154,2.207c-8.442,0-13.722-4.607-13.722-14.009
		V34.598c0-2.879,0-6.429-4.989-8.924v-0.958h18.711V56.76c0,4.03,2.398,5.756,6.235,5.756c4.798,0,7.965-1.726,10.171-3.164V33.925
		c0-2.207,0-5.756-4.989-8.251v-0.958h18.614V64.82c0,2.305,0,4.222,4.989,6.909v0.96h-18.134l-0.48-9.691H277.013z"/>
	<path fill="#E2001D" d="M323.166,26.057c2.206-1.535,4.604-2.302,7.579-2.302c1.821,0,4.604,0.383,5.95,0.863l-4.416,12.57
		c-0.864-0.192-2.976-0.577-4.987-0.577c-4.606,0-7.679,1.727-9.692,3.359v24.658c0,2.496,0,4.413,6.909,7.1v0.96h-25.619v-0.96
		c4.988-2.687,4.988-4.604,4.988-7.1V34.598c0-2.879,0-6.429-4.988-8.924v-0.959h18.71v11.609h0.192L323.166,26.057z"/>
	<path fill="#E2001D" d="M343.697,26.442c4.221-1.536,10.169-2.687,14.967-2.687c11.418,0,19.286,3.934,19.286,14.968V64.82
		c0,2.305,0,4.222,4.989,6.909v0.96h-18.134l-0.481-7.965l-5.852,6.62c-1.631,1.057-3.935,2.305-8.538,2.305
		c-8.254,0-12.857-5.759-12.857-13.05c0-6.236,4.124-10.65,11.225-12.185l16.022-3.263v-3.934c0-5.95-3.356-8.061-8.156-8.061
		c-5.372,0-9.592,0.671-15.542,2.879l-0.383-0.384L343.697,26.442z M354.73,51.772c-2.206,0.769-3.165,2.879-3.165,5.372
		c0,3.744,1.726,6.717,6.235,6.717c2.496,0,5.181-1.246,6.523-2.302V48.318L354.73,51.772z"/>
</g>
</svg>
