<?xml version="1.0" encoding="utf-8"?>
<!-- Generator: Adobe Illustrator 16.0.0, SVG Export Plug-In . SVG Version: 6.00 Build 0)  -->
<!DOCTYPE svg PUBLIC "-//W3C//DTD SVG 1.1//EN" "http://www.w3.org/Graphics/SVG/1.1/DTD/svg11.dtd">
<svg version="1.1" id="Layer_1" xmlns="http://www.w3.org/2000/svg" xmlns:xlink="http://www.w3.org/1999/xlink" x="0px" y="0px"
	 width="542.667px" height="78.667px" viewBox="0 0 542.667 78.667" enable-background="new 0 0 542.667 78.667"
	 xml:space="preserve">
<path fill="#359998" d="M39.8,72.606c18.323,0,33.176-14.854,33.176-33.176c0-18.323-14.853-33.176-33.176-33.176
	c-18.323,0-33.176,14.853-33.176,33.176C6.625,57.752,21.478,72.606,39.8,72.606"/>
<line fill="none" stroke="#FFFFFF" stroke-width="1.193" x1="22.923" y1="39.415" x2="52.719" y2="39.415"/>
<line fill="none" stroke="#FFFFFF" stroke-width="1.193" x1="22.938" y1="36.625" x2="52.719" y2="36.625"/>
<path fill="#FFFFFF" d="M33.041,17.504h-1.469h-0.904h-1.649c0,0-2.051,0-2.051,2.051v39.75c0,0,0,2.051,2.051,2.051h1.649h0.904
	h1.469"/>
<rect x="36.807" y="17.504" fill="#FFFFFF" width="6.073" height="43.852"/>
<rect x="46.646" y="17.504" fill="#FFFFFF" width="6.073" height="12.87"/>
<rect x="46.646" y="45.873" fill="#FFFFFF" width="6.073" height="15.483"/>
<path fill="#359998" d="M145.553,16.097v46.297c0,2.548-0.189,4.233-0.568,5.062c-0.379,0.826-1.532,1.238-3.46,1.238v2.17h26.645
	v-2.17c-1.927,0-3.081-0.412-3.459-1.238c-0.379-0.828-0.568-2.514-0.568-5.062V8.203h-23.651v2.169
	c1.928,0,3.254,0.327,3.977,0.981C145.192,12.007,145.553,13.55,145.553,16.097"/>
<path fill="#359998" d="M127.76,28.557h-1.962c-0.413,3.167-1.016,5.353-1.808,6.558c-0.791,1.205-3.218,1.807-7.281,1.807h-7.745
	V11.207h7.539c6.196,0,10.328,0.826,12.393,2.478c2.066,1.653,3.443,5.198,4.131,10.638h1.962l-0.011-16.111H85.623v2.375
	c2.548,0,4.217,0.379,5.009,1.136c0.792,0.757,1.188,2.41,1.188,4.957v45.648c0,2.547-0.396,4.199-1.188,4.957
	s-2.461,1.137-5.009,1.137v2.375h51.412V52.414h-1.962c-1.721,7.022-3.89,11.342-6.506,12.961
	c-2.617,1.617-5.454,2.426-11.238,2.426h-2.685c-1.79,0-3.184-0.31-4.183-0.93c-0.998-0.619-1.497-1.962-1.497-4.027V39.916h7.745
	c4.063,0,6.49,0.604,7.281,1.809c0.792,1.205,1.395,3.391,1.808,6.558h1.962V28.557z"/>
<path fill="#359998" d="M260.192,25.301h-20.87v2.17c2.067,0,3.341,0.378,3.823,1.136c0.482,0.758,0.723,2.411,0.723,4.959v29.032
	c0,2.548-0.241,4.201-0.723,4.959c-0.482,0.757-1.756,1.136-3.823,1.136v2.17h27.482v-2.17c-2.962-0.069-4.804-0.465-5.527-1.188
	c-0.723-0.723-1.085-2.358-1.085-4.906l-0.014-8.746v-4.594c0-2.465,0.091-5.78,0.273-7.676c0.546-5.59,3.548-10.329,5.549-10.329
	c1.273,0,1.546,1.99,2.456,4.169c1.001,2.748,2.82,4.548,6.55,4.548c3.911,0,6.55-3.032,6.55-7.391c0-2.558-0.819-4.453-1.911-5.591
	c-1.637-1.705-3.91-2.653-6.549-2.653c-3.548,0-6.186,1.327-7.733,2.748c-1.91,1.611-3.639,3.885-4.912,8.149h-0.546"/>
<path fill="#359998" d="M312.736,48.085c0,7.022-0.705,12.272-2.116,15.75c-1.412,3.478-3.287,5.215-5.629,5.215
	c-2.341,0-4.217-1.737-5.629-5.215c-1.41-3.478-2.117-8.728-2.117-15.75c0-6.954,0.707-12.187,2.117-15.698
	c1.412-3.511,3.288-5.267,5.629-5.267c2.342,0,4.217,1.756,5.629,5.267C312.031,35.898,312.736,41.131,312.736,48.085
	 M329.054,48.085c0-7.022-2.479-12.737-7.437-17.144c-4.957-4.406-10.5-6.61-16.627-6.61c-6.128,0-11.688,2.204-16.679,6.61
	c-4.992,4.407-7.487,10.122-7.487,17.144c0,7.092,2.495,12.841,7.487,17.247c4.991,4.406,10.551,6.609,16.679,6.609
	c6.127,0,11.67-2.203,16.627-6.609S329.054,55.177,329.054,48.085"/>
<path fill="#359998" d="M356.634,68.693c-1.997,0-3.253-0.379-3.771-1.136c-0.516-0.757-0.773-2.41-0.773-4.957V35.646
	c0.688-1.377,1.515-2.393,2.478-3.047c0.964-0.654,1.997-0.981,3.099-0.981c1.929,0,3.529,0.74,4.803,2.22s1.911,3.942,1.911,7.385
	v21.378c0,2.547-0.241,4.2-0.724,4.957c-0.481,0.757-1.756,1.136-3.82,1.136v2.169h25.404v-2.169c-2.064,0-3.339-0.379-3.82-1.136
	c-0.482-0.757-0.724-2.41-0.724-4.957V39.26c0-4.131-1.256-7.659-3.769-10.586c-2.513-2.926-6.146-4.389-10.896-4.389
	c-3.236,0-6.093,0.913-8.572,2.737c-2.478,1.825-4.269,3.873-5.369,6.145v-7.849h-20.862v2.169c2.065,0,3.339,0.379,3.821,1.136
	c0.482,0.757,0.723,2.41,0.723,4.957v29.021c0,2.547-0.24,4.2-0.723,4.957s-1.756,1.136-3.821,1.136v2.169h25.406V68.693z"/>
<path fill="#359998" d="M434.608,68.947c-3.512,0-6.628-1.309-9.347-3.925c-2.72-2.616-4.354-5.991-4.906-10.122l-1.329-0.007
	l-0.002,16.222h1.744c0.207-0.619,0.482-1.222,0.826-1.808c0.344-0.585,0.792-0.877,1.343-0.877c0.688,0,1.996,0.585,3.925,1.755
	c1.928,1.171,4.647,1.756,8.158,1.756c5.096,0,9.415-1.429,12.961-4.285c3.547-2.857,5.319-6.697,5.319-11.516
	c0-3.167-0.861-5.87-2.582-8.107s-4.028-4.148-6.919-5.731l-7.436-3.925c-1.446-0.757-2.668-1.566-3.667-2.427
	c-0.998-0.86-1.497-2.014-1.497-3.46c0-1.514,0.533-2.754,1.601-3.717c1.067-0.964,2.461-1.446,4.183-1.446
	c3.166,0,5.817,1.136,7.952,3.408s3.408,4.992,3.821,8.159l1.358,0.013l-0.009-13.852h-1.557c-0.206,0.482-0.447,0.946-0.723,1.394
	c-0.275,0.447-0.724,0.671-1.342,0.671c-0.826,0-2.101-0.465-3.821-1.394c-1.722-0.93-4.028-1.394-6.92-1.394
	c-4.406,0-8.314,1.325-11.723,3.976c-3.407,2.651-5.111,6.214-5.111,10.688c0,2.961,0.706,5.475,2.117,7.539
	c1.411,2.066,3.391,3.752,5.938,5.062l7.952,4.131c1.996,1.101,3.614,2.134,4.854,3.099c1.239,0.963,1.859,2.34,1.859,4.131
	c0,1.928-0.637,3.408-1.911,4.44C438.446,68.431,436.742,68.947,434.608,68.947"/>
<path fill="#359998" d="M475.799,25.571V11.009h-0.93c-1.858,2.547-4.75,5.456-8.676,8.727c-3.924,3.27-7.539,5.663-10.844,7.178
	v1.755h4.338l-0.31,28.918c0,4.198,1.377,7.642,4.131,10.327c2.754,2.685,6.231,4.027,10.431,4.027c3.512,0,6.696-0.93,9.554-2.787
	c2.856-1.859,5.146-4.305,6.867-7.334l-0.77-2.098c-1.103,1.377-2.931,3.32-3.929,4.112s-2.255,1.187-3.771,1.187
	c-1.996,0-3.511-0.757-4.544-2.271c-1.033-1.514-1.549-3.512-1.549-5.99V28.772h12.393l0.014-3.253"/>
<path fill="#359998" d="M513.241,46.639V62.75c-0.688,0.688-1.377,1.153-2.065,1.395c-0.688,0.24-1.343,0.361-1.963,0.361
	c-1.651,0-3.012-0.705-4.079-2.117c-1.066-1.412-1.601-3.149-1.601-5.215c0-2.617,0.551-4.58,1.651-5.888
	c1.103-1.308,2.651-2.41,4.648-3.305L513.241,46.639z M513.241,42.198v1.446l-8.778,3.511c-4.476,1.858-8.142,3.771-10.999,5.731
	c-2.857,1.963-4.286,4.803-4.286,8.521c0,3.167,1.118,5.715,3.356,7.644c2.238,1.928,4.939,2.892,8.106,2.892
	c2.755,0,5.268-0.741,7.539-2.222c2.273-1.479,3.994-3.219,5.164-5.215c0.896,2.686,2.428,4.596,4.597,5.731
	c2.169,1.137,4.458,1.705,6.867,1.705c2.823,0,5.25-0.673,7.281-2.015c2.031-1.343,3.529-2.806,4.492-4.39l-1.445-1.549
	c-0.551,0.688-1.032,1.188-1.445,1.498s-0.896,0.465-1.446,0.465c-0.826,0-1.48-0.328-1.962-0.981
	c-0.482-0.654-0.723-1.533-0.723-2.634V41.991c0-5.232-1.637-9.484-4.906-12.754c-3.271-3.271-7.797-4.906-13.581-4.906
	c-5.37,0-9.794,1.498-13.271,4.493c-3.477,2.995-5.973,6.627-7.486,10.895l2.271,0.931c1.308-2.961,2.909-5.147,4.802-6.558
	c1.895-1.412,4.012-2.117,6.353-2.117c3.167,0,5.542,1.015,7.126,3.046C512.449,37.051,513.241,39.444,513.241,42.198"/>
<path fill="#359998" d="M213.287,8.397c6.434,0,14.029,9.025,19.569,19.658h0.893l0.034-19.873h-1.553
	c-0.714,1.162-1.161,1.787-2.68,1.787c-1.162,0-2.592-0.053-4.021-0.5c-2.681-0.804-6.523-1.966-12.063-1.966
	c-18.854,0-31.096,11.527-31.096,33.241c0,20.998,11.527,31.186,31.096,31.186c5.272,0,9.918-0.715,12.867-1.519
	c1.608-0.446,2.949-0.956,4.11-0.956c0.983,0,1.92-0.145,2.706,1.422h1.494V50.995h-0.715c-4.289,8.043-12.42,19.862-20.016,19.862
	c-7.863,0-11.169-8.4-11.169-23.055V32.344C202.743,16.171,206.585,8.397,213.287,8.397"/>
<path fill="#359998" d="M393.609,33.58v29.021c0,2.547-0.241,4.199-0.723,4.957c-0.482,0.757-1.756,1.136-3.821,1.136v2.17h25.406
	v-2.17c-1.997,0-3.253-0.379-3.771-1.136c-0.516-0.758-0.773-2.41-0.773-4.957V25.317h-20.862v2.169
	c2.065,0,3.339,0.378,3.821,1.136C393.368,29.38,393.609,31.033,393.609,33.58"/>
<path fill="#359998" d="M401.074,21.906c4.877,0,8.83-3.953,8.83-8.83s-3.953-8.83-8.83-8.83s-8.83,3.953-8.83,8.83
	S396.197,21.906,401.074,21.906"/>
</svg>
