<?xml version="1.0" encoding="utf-8"?>
<!-- Generator: Adobe Illustrator 16.0.0, SVG Export Plug-In . SVG Version: 6.00 Build 0)  -->
<!DOCTYPE svg PUBLIC "-//W3C//DTD SVG 1.1//EN" "http://www.w3.org/Graphics/SVG/1.1/DTD/svg11.dtd">
<svg version="1.1" id="Layer_1" xmlns="http://www.w3.org/2000/svg" xmlns:xlink="http://www.w3.org/1999/xlink" x="0px" y="0px"
	 width="151px" height="38.818px" viewBox="0 0 151 38.818" enable-background="new 0 0 151 38.818" xml:space="preserve">
<g>
	<line fill="none" stroke="#EB0029" stroke-width="1.422" x1="57.658" y1="9.549" x2="49.226" y2="9.549"/>
	<g>
		<path fill="#EB0029" d="M62.802,0v10.838H59.84V0H62.802z"/>
		<path fill="#EB0029" d="M72.948,0v10.838H71.3l-3.656-5.174v5.174H64.74V0h1.85l3.439,5.115V0H72.948z"/>
		<path fill="#EB0029" d="M77.632,2.543v1.242h2.934v2.428h-2.934v4.625h-2.948V0h5.91v2.543H77.632z"/>
		<path fill="#EB0029" d="M81.492,5.375c0-3.309,1.821-5.52,4.537-5.52c2.702,0,4.508,2.211,4.508,5.52
			c0,3.324-1.806,5.535-4.508,5.535C83.313,10.91,81.492,8.699,81.492,5.375z M87.576,5.375c0-1.748-0.622-2.918-1.546-2.918
			c-0.939,0-1.575,1.17-1.575,2.918c0,1.764,0.636,2.934,1.575,2.934C86.954,8.309,87.576,7.139,87.576,5.375z"/>
	</g>
	<line fill="none" stroke="#FF8300" stroke-width="1.422" x1="57.658" y1="24.734" x2="49.226" y2="24.734"/>
	<g>
		<path fill="#FF8300" d="M66.603,17.715h-1.835v8.309h-2.934v-8.309H59.97v-2.529h6.632V17.715z"/>
		<path fill="#FF8300" d="M74.249,23.508v2.516h-6.126V15.186h5.91v2.543H71.07v1.141h2.933v2.283H71.07v2.355H74.249z"/>
		<path fill="#FF8300" d="M80.941,17.715c-1.041,0-1.85,1.141-1.85,2.977c0,1.633,0.809,2.832,1.835,2.832
			c1.069,0,1.792-0.203,2.529-0.521l0.347,2.559c-0.751,0.332-1.734,0.607-2.933,0.607c-2.847,0-4.74-2.283-4.74-5.477
			c0-3.396,1.922-5.65,4.812-5.65c1.055,0,2.24,0.418,2.977,0.996l-0.91,2.371C82.343,18.076,81.75,17.715,80.941,17.715z"/>
		<path fill="#FF8300" d="M93.342,15.186v10.838h-2.861v-4.582h-2.066v4.582h-2.861V15.186h2.861v3.67h2.066v-3.67H93.342z"/>
		<path fill="#FF8300" d="M103.489,15.186v10.838h-1.647l-3.656-5.174v5.174h-2.905V15.186h1.85l3.439,5.115v-5.115H103.489z"/>
		<path fill="#FF8300" d="M105.139,20.561c0-3.309,1.821-5.52,4.537-5.52c2.702,0,4.508,2.211,4.508,5.52
			c0,3.324-1.806,5.535-4.508,5.535C106.959,26.096,105.139,23.885,105.139,20.561z M111.222,20.561
			c0-1.748-0.622-2.918-1.546-2.918c-0.939,0-1.575,1.17-1.575,2.918c0,1.764,0.636,2.934,1.575,2.934
			C110.601,23.494,111.222,22.324,111.222,20.561z"/>
		<path fill="#FF8300" d="M121.672,23.508v2.516h-5.954V15.186h2.962v8.322H121.672z"/>
		<path fill="#FF8300" d="M122.455,20.561c0-3.309,1.821-5.52,4.537-5.52c2.702,0,4.508,2.211,4.508,5.52
			c0,3.324-1.806,5.535-4.508,5.535C124.275,26.096,122.455,23.885,122.455,20.561z M128.538,20.561
			c0-1.748-0.622-2.918-1.546-2.918c-0.939,0-1.575,1.17-1.575,2.918c0,1.764,0.636,2.934,1.575,2.934
			C127.917,23.494,128.538,22.324,128.538,20.561z"/>
		<path fill="#FF8300" d="M140.751,25.502c-0.767,0.348-1.922,0.65-3.208,0.65c-2.977,0-4.609-2.283-4.609-5.693
			c0-3.25,1.82-5.418,4.537-5.418c1.271,0,2.398,0.463,3.121,0.982l-0.925,2.211c-0.549-0.318-1.112-0.535-1.937-0.535
			c-1.068,0-1.791,1.098-1.791,2.76c0,1.85,0.664,3.107,1.791,3.107c0.174,0,0.361-0.014,0.564-0.029v-1.863h-1.099l0.015-2.299
			h3.54V25.502z"/>
		<path fill="#FF8300" d="M147.357,20.416v5.607h-2.934v-5.549l-2.688-5.289h2.846l1.301,2.963l1.287-2.963h2.99L147.357,20.416z"/>
	</g>
	<rect y="8.02" fill="#EB0029" width="4.636" height="26.162"/>
	<rect x="18.512" y="0.049" fill="#FF8300" width="4.636" height="34.133"/>
	<rect y="0.049" fill="#EB0029" width="4.636" height="4.387"/>
	<rect x="4.635" y="34.182" fill="#EB0029" width="10.148" height="4.637"/>
	<rect x="23.148" y="34.182" fill="#FF8300" width="10.148" height="4.637"/>
	<rect x="23.081" y="8.201" fill="#FF8300" width="10.148" height="4.637"/>
</g>
</svg>
